<?xml version="1.0" encoding="utf-8"?>
<!-- Generator: Adobe Illustrator 25.2.0, SVG Export Plug-In . SVG Version: 6.00 Build 0)  -->
<svg version="1.1" id="레이어_1" xmlns="http://www.w3.org/2000/svg" xmlns:xlink="http://www.w3.org/1999/xlink" x="0px"
	 y="0px" viewBox="0 0 589 160.1" style="enable-background:new 0 0 589 160.1;" xml:space="preserve">
<style type="text/css">
	.st0{fill:url(#패스_18_1_);}
	.st1{fill:url(#패스_19_1_);}
	.st2{fill:#D2261F;}
	.st3{fill:#191310;}
</style>
<g id="그룹_18_6_" transform="translate(-37.294 -5.143)">
	<g id="그룹_14_6_">
		<g id="그룹_13_6_">
			<g id="그룹_12_6_">
				
					<linearGradient id="패스_18_1_" gradientUnits="userSpaceOnUse" x1="-417.7224" y1="56.6957" x2="-421.0894" y2="49.3597" gradientTransform="matrix(13.1688 0 0 15.377 5625.3057 -717.0977)">
					<stop  offset="0" style="stop-color:#040000"/>
					<stop  offset="0.227" style="stop-color:#171716"/>
					<stop  offset="0.494" style="stop-color:#1E1716"/>
					<stop  offset="0.779" style="stop-color:#1B1C1B"/>
					<stop  offset="1" style="stop-color:#040000"/>
				</linearGradient>
				<path id="패스_18_6_" class="st0" d="M65.5,67.2l25.4-9.4h14.1c5.7,0,12.2-0.9,17-4.7c3.8-2.8,6.6-8.5,5.7-13.2
					c0-4.7-1.9-9.4-5.7-11.3c-1.9-0.9-4.7-1.9-6.6-2.8c8.5-7.5,18.8-13.2,29.2-17c6.6,5.7,12.2,14.1,14.1,23.6
					c1.9,7.5,0.9,16-2.8,23.6c-2.8,5.7-7.5,10.4-12.2,14.1c6.6,3.8,11.3,8.5,16,14.1c5.7,7.5,7.5,17,6.6,26.4
					c-0.9,12.2-6.6,23.6-17,31.1c-11.3,8.5-25.4,13.2-39.6,12.2H41V64.4L65.5,67.2z M127.7,119c3.8-3.8,6.6-8.5,6.6-14.1
					s-1.9-10.4-6.6-14.1c-5.7-4.7-12.2-6.6-19.8-5.7H66.4v40.5h40.5C114.5,126.6,122,123.7,127.7,119z"/>
			</g>
		</g>
		
			<linearGradient id="패스_19_1_" gradientUnits="userSpaceOnUse" x1="-315.5569" y1="88.0105" x2="-331.7982" y2="77.0449" gradientTransform="matrix(2.721 0 0 10.2857 938.0311 -732.9266)">
			<stop  offset="3.900000e-02" style="stop-color:#D2261F"/>
			<stop  offset="0.378" style="stop-color:#C12220"/>
			<stop  offset="1" style="stop-color:#811A1E"/>
		</linearGradient>
		<path id="패스_19_6_" class="st1" d="M41,64.4v89.5h25.4V59.7C58,54,46.7,55.9,41,64.4z"/>
		<path id="패스_20_6_" class="st2" d="M61.7,44.6C72.1,42.7,84.3,55,84.3,55c19.8-25.4,39.6-44.3,60.3-46.2
			c-19.8,6.6-56.5,85.7-56.5,85.7S54.2,51.2,41,64.4C45.7,55.9,53.2,49.3,61.7,44.6z"/>
	</g>
	<g id="그룹_17_6_">
		<g id="그룹_15_6_">
			<path id="패스_21_6_" class="st3" d="M187,22.9h19.8c12.2,0,21.7,3.8,21.7,15.1c0,5.7-2.8,10.4-8.5,13.2l0,0
				c6.6,0.9,11.3,7.5,11.3,14.1c0,12.2-10.4,17.9-23.6,17.9h-21.7L187,22.9z M205.9,46.5c7.5,0,11.3-2.8,11.3-7.5
				c0-5.7-3.8-7.5-10.4-7.5h-7.5v15.1H205.9z M206.8,72.9c8.5,0,12.2-2.8,12.2-9.4c0-5.7-4.7-8.5-12.2-8.5h-8.5v17L206.8,72.9z"/>
			<path id="패스_22_6_" class="st3" d="M241.7,22.9h12.2l17,32l5.7,13.2l0,0c-0.9-6.6-1.9-14.1-1.9-20.7V23.9h11.3v59.4h-12.2
				l-16-33L252,37.1l0,0c0.9,6.6,1.9,14.1,1.9,20.7v23.6h-11.3L241.7,22.9z"/>
			<path id="패스_23_6_" class="st3" d="M298.2,74.7l6.6-8.5c3.8,3.8,9.4,6.6,15.1,6.6c6.6,0,9.4-2.8,9.4-6.6
				c0-4.7-3.8-5.7-8.5-8.5l-7.5-3.8c-6.6-1.9-12.2-8.5-12.2-16c0.9-10.4,9.4-17.9,19.8-17h0.9c6.6,0,14.1,2.8,18.8,7.5l-5.7,7.5
				c-3.8-2.8-7.5-4.7-12.2-4.7c-5.7,0-8.5,1.9-8.5,6.6s4.7,5.7,9.4,7.5l7.5,3.8c7.5,1.9,12.2,8.5,12.2,16
				c-0.9,10.4-9.4,18.8-20.7,17.9h-0.9C312.3,83.2,303.8,80.4,298.2,74.7z"/>
			<path id="패스_24_6_" class="st3" d="M362.2,60.6l-17.9-37.7h12.2l5.7,14.1c1.9,4.7,3.8,8.5,4.7,13.2l0,0
				c1.9-4.7,3.8-8.5,5.7-13.2l5.7-14.1h12.2l-17.9,37.7v21.7h-12.2L362.2,60.6z"/>
			<path id="패스_25_6_" class="st3" d="M395.2,74.7l6.6-8.5c3.8,3.8,9.4,6.6,15.1,6.6c6.6,0,9.4-2.8,9.4-6.6
				c0-4.7-3.8-5.7-8.5-8.5l-7.5-3.8c-6.6-1.9-12.2-8.5-12.2-16c0.9-10.4,9.4-17.9,19.8-17h0.9c6.6,0,14.1,2.8,18.8,7.5l-5.7,7.5
				c-3.8-2.8-7.5-4.7-12.2-4.7c-5.7,0-8.5,1.9-8.5,6.6s4.7,5.7,9.4,7.5l7.5,3.8c7.5,1.9,12.2,8.5,12.2,16
				c-0.9,10.4-9.4,18.8-20.7,17.9h-0.9C409.3,83.2,400.9,80.4,395.2,74.7z"/>
			<path id="패스_26_6_" class="st3" d="M461.2,32.4h-17V22h45.2v10.4h-17v49.9h-12.2L461.2,32.4z"/>
			<path id="패스_27_6_" class="st3" d="M499.8,22.9h36.7v10.4H512v14.1h20.7v10.4H512v16h25.4v10.4h-37.7V22.9z"/>
			<path id="패스_28_6_" class="st3" d="M549.7,22.9h13.2l10.4,28.3c0.9,3.8,2.8,7.5,3.8,11.3l0,0c0.9-3.8,1.9-7.5,3.8-11.3
				l10.4-28.3h13.2v59.4H594V57.8c0-5.7,0.9-14.1,1.9-19.8l0,0l-4.7,14.1l-9.4,25.4h-6.6l-9.4-25.4L559.1,38l0,0
				c0.9,5.7,1.9,14.1,1.9,19.8v24.5h-11.3V22.9z"/>
		</g>
	</g>
</g>
<g>
	<path d="M151.2,122.2l1.6,3.3c7-1.2,13.6-5,16.4-10.3c2.7,5.3,9.4,9.1,16.4,10.3l1.6-3.3c-8-1.2-15.8-6.3-15.8-12.3v-0.3h14.1v-3.3
		h-33v3.3h14.2v0.3C166.9,115.9,159.1,121,151.2,122.2z"/>
	<polygon points="148.8,129.2 148.8,132.6 167,132.6 167,148.7 171.1,148.7 171.1,132.6 189.6,132.6 189.6,129.2 	"/>
	<polygon points="201.9,136.3 228,136.3 228,148.7 232.1,148.7 232.1,133 201.9,133 	"/>
	<rect x="228" y="103.6" width="4.1" height="27.1"/>
	<path d="M208.9,117.3c2,5,6.1,8.9,11.3,10.7l2.1-3.3c-6.7-2.3-11.3-8.2-11.3-14.7v-4.4h-4.1v4.4c0,6.7-4.6,13-11.4,15.5l2.1,3.3
		C202.9,126.8,207,122.6,208.9,117.3z"/>
	<path d="M258.4,136.3v-4.7c5.3-0.7,8.8-3.8,8.8-8.3c0-5.1-4.4-8.4-10.8-8.4c-6.4,0-10.9,3.3-10.9,8.4c0,4.5,3.5,7.7,8.8,8.3v4.8
		c-4.5,0.2-8.8,0.2-12.6,0.2l0.6,3.5c8.3,0,19.2-0.2,29.2-1.8l-0.3-3.1C267.1,135.8,262.7,136.1,258.4,136.3z M249.4,123.3
		c0-3.2,2.8-5.2,6.9-5.2c4.1,0,6.9,2,6.9,5.2c0,3.1-2.8,5.1-6.9,5.1C252.2,128.4,249.4,126.4,249.4,123.3z"/>
	<rect x="274" y="103.6" width="4.1" height="45.1"/>
	<polygon points="270,109.1 258.4,109.1 258.4,103.6 254.3,103.6 254.3,109.1 242.6,109.1 242.6,112.4 270,112.4 	"/>
	<polygon points="322.4,103.6 318.3,103.6 318.3,148.7 322.4,148.7 322.4,125.3 329.9,125.3 329.9,121.8 322.4,121.8 	"/>
	<path d="M302.9,115.6v-8.1h-4.1v8.1c0,8.2-5.1,16.9-11.6,20.2l2.5,3.3c5.1-2.7,9.3-8.4,11.2-15c2.1,6.2,6.1,11.5,10.9,14l2.6-3.3
		C308,131.7,302.9,123.5,302.9,115.6z"/>
	<path d="M365,119.3h-13.1v-11.9h-4.1v30.5h21.2v-30.5H365V119.3z M365,134.4h-13.1v-11.9H365V134.4z"/>
	<rect x="378.1" y="103.5" width="4.1" height="45.2"/>
	<polygon points="404.4,133 400.3,133 400.3,147.7 431,147.7 431,144.3 404.4,144.3 	"/>
	<rect x="425.7" y="103.6" width="4" height="33.7"/>
	<path d="M412.5,119.8h4.7V136h3.9v-31.6h-3.9v12h-4.7c-0.7-5.5-4.7-9.4-10.2-9.4c-5.9,0-10.3,4.5-10.3,11c0,6.5,4.3,11,10.3,11
		C407.7,129,411.8,125.3,412.5,119.8z M395.7,118c0-4.4,2.8-7.4,6.6-7.4s6.5,3,6.5,7.4c0,4.3-2.8,7.5-6.5,7.5S395.7,122.3,395.7,118
		z"/>
	<path d="M453.9,115.6v-8.1h-4.1v8.1c0,8.6-5.5,17.2-12.1,20.4l2.5,3.4c5.3-2.7,9.6-8.4,11.7-15.2c2.2,6.4,6.5,11.8,11.6,14.3
		l2.5-3.3C459.3,132.1,453.9,123.8,453.9,115.6z"/>
	<rect x="470.8" y="103.5" width="4.1" height="45.3"/>
	<path d="M504.5,116.6c2.9,6.6,9.9,11.5,16.8,13l1.9-3.4c-7.9-1.5-16.5-8.4-16.5-16.1v-3.5h-4.3v3.5c0,7.7-8.5,14.5-16.4,16.1
		l1.9,3.4C494.6,128,501.7,123.2,504.5,116.6z"/>
	<rect x="484.3" y="139.2" width="40.9" height="3.4"/>
	<polygon points="556,130.3 559.9,130.3 559.9,104.3 556,104.3 556,114.9 550,114.9 550,118.2 556,118.2 	"/>
	<rect x="564.7" y="103.5" width="4" height="27.2"/>
	<path d="M539,148.1h29.7v-15.2H539V148.1z M543.1,136.1h21.6v8.6h-21.6V136.1z"/>
	<path d="M551.8,123.5c-4.7,1-8.8,1.2-15.2,1.2v-6.1h11.3v-3.2h-11.3v-5.6h13.1v-3.3h-17.1V128h2.9c7.2,0,11.5-0.2,16.6-1.2
		L551.8,123.5z"/>
</g>
</svg>
