<?xml version="1.0" encoding="UTF-8"?>
<svg id="light_search" xmlns="http://www.w3.org/2000/svg" viewBox="0 0 40 40">
  <defs>
    <style>
      .cls-1 {
        fill: #161616;
      }
    </style>
  </defs>
  <path class="cls-1" d="m36.05,30.79l-9.49-9.28c-.56-.54-1.24-.88-1.95-1.01,2.55-4.46,1.89-10.28-1.97-14.06-4.58-4.5-11.95-4.45-16.42.11-2.17,2.21-3.34,5.13-3.3,8.24.04,3.1,1.28,6,3.5,8.18,2.2,2.16,5.1,3.35,8.17,3.35.02,0,.05,0,.07,0,1.96-.01,3.85-.51,5.51-1.43.13.76.48,1.48,1.07,2.05l9.49,9.28c1.5,1.46,3.9,1.43,5.36-.06,1.46-1.5,1.44-3.9-.06-5.36Zm-21.4-8.48c-2.06,0-3.96-.77-5.42-2.2-1.46-1.43-2.28-3.34-2.3-5.38-.03-2.03.74-3.94,2.15-5.38,1.47-1.5,3.43-2.25,5.39-2.25s3.88.73,5.37,2.2c3.01,2.95,3.07,7.78.15,10.76-1.42,1.44-3.31,2.24-5.34,2.26Z"/>
</svg>