<?xml version="1.0" encoding="utf-8"?>
<!-- Generator: Adobe Illustrator 16.0.0, SVG Export Plug-In . SVG Version: 6.00 Build 0)  -->
<!DOCTYPE svg PUBLIC "-//W3C//DTD SVG 1.1//EN" "http://www.w3.org/Graphics/SVG/1.1/DTD/svg11.dtd">
<svg version="1.1" xmlns="http://www.w3.org/2000/svg" xmlns:xlink="http://www.w3.org/1999/xlink" x="0px" y="0px" width="40px"
	 height="40px" viewBox="0 0 40 40" enable-background="new 0 0 40 40" xml:space="preserve">
<g id="dark_x5F_mode" display="none">
	<path display="inline" fill="#EBEBEB" stroke="#EBEBEB" stroke-width="3" stroke-linejoin="round" stroke-miterlimit="10" d="
		M37.783,26.046c-2.466,6.94-9.092,11.91-16.878,11.91C11.016,37.956,3,29.938,3,20.05c0-9.89,8.016-17.906,17.905-17.906
		C10.178,15.036,21.279,32.761,37.783,26.046z"/>
</g>
<g id="light_x5F_search" display="none">
	<path display="inline" fill="#222222" d="M18.136,21.96c1.711,1.341,2.013,3.818,0.67,5.528l-8.509,10.848
		c-1.344,1.71-3.819,2.009-5.53,0.667l0,0c-1.712-1.342-2.011-3.818-0.669-5.528l8.509-10.849
		C13.949,20.914,16.425,20.614,18.136,21.96L18.136,21.96z"/>
	<path display="inline" fill="none" stroke="#222222" stroke-width="4" stroke-miterlimit="10" d="M16.21,6.449
		c-3.782,4.84-2.948,11.808,1.859,15.565c4.807,3.757,11.769,2.878,15.549-1.963c3.783-4.841,2.95-11.807-1.856-15.563
		C26.953,0.732,19.991,1.609,16.21,6.449z"/>
</g>
<g id="dark_x5F_search" display="none">
	<path display="inline" fill="#FFFFFF" d="M18.136,21.96c1.711,1.341,2.013,3.818,0.67,5.528l-8.509,10.848
		c-1.344,1.71-3.819,2.009-5.53,0.667l0,0c-1.712-1.342-2.011-3.818-0.669-5.528l8.509-10.849
		C13.949,20.914,16.425,20.614,18.136,21.96L18.136,21.96z"/>
	<path display="inline" fill="none" stroke="#FDFDFE" stroke-width="4" stroke-miterlimit="10" d="M16.21,6.449
		c-3.782,4.84-2.948,11.808,1.859,15.565c4.807,3.757,11.769,2.878,15.549-1.963c3.783-4.841,2.95-11.807-1.856-15.563
		C26.953,0.732,19.991,1.609,16.21,6.449z"/>
</g>
<g id="light_x5F_mode">
	<path fill="#171717" d="M6,22H2c-1.104,0-2-0.896-2-2s0.896-2,2-2h4c1.104,0,2,0.896,2,2S7.104,22,6,22z"/>
	<path fill="#171717" d="M38,22h-4c-1.104,0-2-0.896-2-2s0.896-2,2-2h4c1.104,0,2,0.896,2,2S39.104,22,38,22z"/>
	<path fill="#171717" d="M11.515,31.313l-2.828,2.829c-0.781,0.78-2.048,0.78-2.828,0c-0.781-0.781-0.781-2.048,0-2.828l2.828-2.829
		c0.781-0.78,2.047-0.781,2.828,0C12.296,29.266,12.296,30.533,11.515,31.313z"/>
	<path fill="#171717" d="M34.142,8.686l-2.828,2.829c-0.781,0.781-2.047,0.781-2.828,0c-0.781-0.781-0.781-2.047,0-2.828
		l2.828-2.829c0.781-0.781,2.047-0.781,2.828,0C34.923,6.639,34.923,7.905,34.142,8.686z"/>
	<path fill="#171717" d="M22,34v4c-0.001,1.104-0.896,2-2,2c-1.105,0-2-0.896-2-2v-4c0-1.104,0.896-2,2-2S22.001,32.896,22,34z"/>
	<path fill="#171717" d="M22,2v4c0,1.104-0.896,2-2,2c-1.104,0-2-0.896-2-2V2c0-1.104,0.896-2,2-2C21.105,0,22,0.896,22,2z"/>
	<path fill="#171717" d="M31.313,28.485l2.828,2.829c0.78,0.78,0.781,2.047,0.001,2.827c-0.782,0.782-2.048,0.781-2.829,0.001
		l-2.828-2.829c-0.781-0.78-0.781-2.047,0-2.828C29.267,27.705,30.534,27.704,31.313,28.485z"/>
	<path fill="#171717" d="M8.687,5.858l2.828,2.829c0.781,0.781,0.78,2.047,0,2.828c-0.781,0.781-2.047,0.781-2.828,0L5.858,8.686
		C5.077,7.905,5.077,6.639,5.857,5.858C6.64,5.076,7.905,5.077,8.687,5.858z"/>
	<circle fill="#171717" stroke="#171717" stroke-width="4" stroke-miterlimit="10" cx="20" cy="20" r="8.77"/>
</g>
<g id="light_x5F_close" display="none">
	
		<line display="inline" fill="none" stroke="#222222" stroke-width="4" stroke-linecap="round" stroke-miterlimit="10" x1="4" y1="4" x2="36" y2="36"/>
	
		<line display="inline" fill="none" stroke="#222222" stroke-width="4" stroke-linecap="round" stroke-miterlimit="10" x1="36" y1="4" x2="4" y2="36"/>
</g>
<g id="dark_x5F_close" display="none">
	
		<line display="inline" fill="none" stroke="#FFFFFF" stroke-width="4" stroke-linecap="round" stroke-miterlimit="10" x1="4" y1="4" x2="36" y2="36"/>
	
		<line display="inline" fill="none" stroke="#FFFFFF" stroke-width="4" stroke-linecap="round" stroke-miterlimit="10" x1="36" y1="4" x2="4" y2="36"/>
</g>
</svg>
